<?xml version="1.0" standalone="no"?><svg xmlns="http://www.w3.org/2000/svg" viewBox="0 0 1440 320"><path fill="#0085CD" fill-opacity="1" d="M0,160L24,144C48,128,96,96,144,90.7C192,85,240,107,288,96C336,85,384,43,432,32C480,21,528,43,576,85.3C624,128,672,192,720,202.7C768,213,816,171,864,165.3C912,160,960,192,1008,186.7C1056,181,1104,139,1152,112C1200,85,1248,75,1296,69.3C1344,64,1392,64,1416,64L1440,64L1440,0L1416,0C1392,0,1344,0,1296,0C1248,0,1200,0,1152,0C1104,0,1056,0,1008,0C960,0,912,0,864,0C816,0,768,0,720,0C672,0,624,0,576,0C528,0,480,0,432,0C384,0,336,0,288,0C240,0,192,0,144,0C96,0,48,0,24,0L0,0Z"></path></svg>