<?xml version="1.0" standalone="no"?><svg xmlns="http://www.w3.org/2000/svg" viewBox="0 0 1440 320"><path fill="#0085CD" fill-opacity="1" d="M0,288L30,272C60,256,120,224,180,192C240,160,300,128,360,133.3C420,139,480,181,540,218.7C600,256,660,288,720,256C780,224,840,128,900,90.7C960,53,1020,75,1080,117.3C1140,160,1200,224,1260,213.3C1320,203,1380,117,1410,74.7L1440,32L1440,320L1410,320C1380,320,1320,320,1260,320C1200,320,1140,320,1080,320C1020,320,960,320,900,320C840,320,780,320,720,320C660,320,600,320,540,320C480,320,420,320,360,320C300,320,240,320,180,320C120,320,60,320,30,320L0,320Z"></path></svg>